<mxfile host="Electron" agent="Mozilla/5.0 (Windows NT 10.0; Win64; x64) AppleWebKit/537.36 (KHTML, like Gecko) draw.io/28.1.2 Chrome/138.0.7204.243 Electron/37.4.0 Safari/537.36" version="28.1.2">
  <diagram name="Page-1" id="ILruZGyyTOa1ROQKs28J">
    <mxGraphModel dx="1026" dy="593" grid="1" gridSize="10" guides="1" tooltips="1" connect="1" arrows="1" fold="1" page="1" pageScale="1" pageWidth="850" pageHeight="1100" math="0" shadow="0">
      <root>
        <mxCell id="0" />
        <mxCell id="1" parent="0" />
        <mxCell id="UPwNnVpkmZIT6Y5rXxJI-1" value="Central Data Hub/ Dashboard" style="rounded=1;whiteSpace=wrap;html=1;" vertex="1" parent="1">
          <mxGeometry x="330" y="240" width="120" height="60" as="geometry" />
        </mxCell>
        <mxCell id="UPwNnVpkmZIT6Y5rXxJI-2" value="Home Buyers / Renters" style="ellipse;whiteSpace=wrap;html=1;" vertex="1" parent="1">
          <mxGeometry x="230" y="30" width="120" height="80" as="geometry" />
        </mxCell>
        <mxCell id="UPwNnVpkmZIT6Y5rXxJI-3" value="&#xa;Sellers / Real Estate Agents &#xa;&#xa;" style="ellipse;whiteSpace=wrap;html=1;" vertex="1" parent="1">
          <mxGeometry x="500" y="60" width="120" height="80" as="geometry" />
        </mxCell>
        <mxCell id="UPwNnVpkmZIT6Y5rXxJI-4" value="Banks &amp;amp; Lenders" style="ellipse;whiteSpace=wrap;html=1;" vertex="1" parent="1">
          <mxGeometry x="620" y="200" width="120" height="80" as="geometry" />
        </mxCell>
        <mxCell id="UPwNnVpkmZIT6Y5rXxJI-5" value="&#xa;Government / Policy Makers&#xa;&#xa;" style="ellipse;whiteSpace=wrap;html=1;" vertex="1" parent="1">
          <mxGeometry x="490" y="420" width="120" height="80" as="geometry" />
        </mxCell>
        <mxCell id="UPwNnVpkmZIT6Y5rXxJI-6" value="&#xa;Investors / Developers&#xa;&#xa;" style="ellipse;whiteSpace=wrap;html=1;" vertex="1" parent="1">
          <mxGeometry x="190" y="390" width="120" height="80" as="geometry" />
        </mxCell>
        <mxCell id="UPwNnVpkmZIT6Y5rXxJI-7" value="&#xa;City Council Planners&#xa;&#xa;" style="ellipse;whiteSpace=wrap;html=1;" vertex="1" parent="1">
          <mxGeometry x="90" y="210" width="120" height="80" as="geometry" />
        </mxCell>
        <mxCell id="UPwNnVpkmZIT6Y5rXxJI-8" value="" style="endArrow=classic;html=1;rounded=0;" edge="1" parent="1" source="UPwNnVpkmZIT6Y5rXxJI-2" target="UPwNnVpkmZIT6Y5rXxJI-1">
          <mxGeometry width="50" height="50" relative="1" as="geometry">
            <mxPoint x="270" y="190" as="sourcePoint" />
            <mxPoint x="320" y="140" as="targetPoint" />
          </mxGeometry>
        </mxCell>
        <mxCell id="UPwNnVpkmZIT6Y5rXxJI-9" value="" style="endArrow=classic;html=1;rounded=0;exitX=0.6;exitY=0;exitDx=0;exitDy=0;exitPerimeter=0;entryX=1;entryY=1;entryDx=0;entryDy=0;" edge="1" parent="1" source="UPwNnVpkmZIT6Y5rXxJI-1" target="UPwNnVpkmZIT6Y5rXxJI-2">
          <mxGeometry width="50" height="50" relative="1" as="geometry">
            <mxPoint x="480" y="190" as="sourcePoint" />
            <mxPoint x="530" y="140" as="targetPoint" />
          </mxGeometry>
        </mxCell>
        <mxCell id="UPwNnVpkmZIT6Y5rXxJI-10" value="" style="endArrow=classic;html=1;rounded=0;exitX=1.025;exitY=0.15;exitDx=0;exitDy=0;exitPerimeter=0;entryX=0.8;entryY=0.925;entryDx=0;entryDy=0;entryPerimeter=0;" edge="1" parent="1" source="UPwNnVpkmZIT6Y5rXxJI-1" target="UPwNnVpkmZIT6Y5rXxJI-3">
          <mxGeometry width="50" height="50" relative="1" as="geometry">
            <mxPoint x="535" y="250" as="sourcePoint" />
            <mxPoint x="585" y="200" as="targetPoint" />
          </mxGeometry>
        </mxCell>
        <mxCell id="UPwNnVpkmZIT6Y5rXxJI-11" value="" style="endArrow=classic;html=1;rounded=0;exitX=0.567;exitY=1;exitDx=0;exitDy=0;exitPerimeter=0;entryX=0.917;entryY=0.033;entryDx=0;entryDy=0;entryPerimeter=0;" edge="1" parent="1" source="UPwNnVpkmZIT6Y5rXxJI-3" target="UPwNnVpkmZIT6Y5rXxJI-1">
          <mxGeometry width="50" height="50" relative="1" as="geometry">
            <mxPoint x="400" y="330" as="sourcePoint" />
            <mxPoint x="450" y="280" as="targetPoint" />
          </mxGeometry>
        </mxCell>
        <mxCell id="UPwNnVpkmZIT6Y5rXxJI-12" value="" style="endArrow=classic;html=1;rounded=0;exitX=0.067;exitY=0.825;exitDx=0;exitDy=0;entryX=1;entryY=0.75;entryDx=0;entryDy=0;exitPerimeter=0;" edge="1" parent="1" source="UPwNnVpkmZIT6Y5rXxJI-4" target="UPwNnVpkmZIT6Y5rXxJI-1">
          <mxGeometry width="50" height="50" relative="1" as="geometry">
            <mxPoint x="400" y="330" as="sourcePoint" />
            <mxPoint x="450" y="280" as="targetPoint" />
          </mxGeometry>
        </mxCell>
        <mxCell id="UPwNnVpkmZIT6Y5rXxJI-13" value="" style="endArrow=classic;html=1;rounded=0;exitX=1;exitY=0.5;exitDx=0;exitDy=0;" edge="1" parent="1" source="UPwNnVpkmZIT6Y5rXxJI-1" target="UPwNnVpkmZIT6Y5rXxJI-4">
          <mxGeometry width="50" height="50" relative="1" as="geometry">
            <mxPoint x="400" y="330" as="sourcePoint" />
            <mxPoint x="450" y="280" as="targetPoint" />
          </mxGeometry>
        </mxCell>
        <mxCell id="UPwNnVpkmZIT6Y5rXxJI-14" value="" style="endArrow=classic;html=1;rounded=0;exitX=0.583;exitY=0.983;exitDx=0;exitDy=0;entryX=0.042;entryY=0.425;entryDx=0;entryDy=0;entryPerimeter=0;exitPerimeter=0;" edge="1" parent="1" source="UPwNnVpkmZIT6Y5rXxJI-1" target="UPwNnVpkmZIT6Y5rXxJI-5">
          <mxGeometry width="50" height="50" relative="1" as="geometry">
            <mxPoint x="380" y="455" as="sourcePoint" />
            <mxPoint x="430" y="405" as="targetPoint" />
          </mxGeometry>
        </mxCell>
        <mxCell id="UPwNnVpkmZIT6Y5rXxJI-15" value="" style="endArrow=classic;html=1;rounded=0;" edge="1" parent="1" source="UPwNnVpkmZIT6Y5rXxJI-1" target="UPwNnVpkmZIT6Y5rXxJI-5">
          <mxGeometry width="50" height="50" relative="1" as="geometry">
            <mxPoint x="400" y="330" as="sourcePoint" />
            <mxPoint x="450" y="280" as="targetPoint" />
          </mxGeometry>
        </mxCell>
        <mxCell id="UPwNnVpkmZIT6Y5rXxJI-18" value="" style="endArrow=classic;html=1;rounded=0;exitX=0.95;exitY=0.325;exitDx=0;exitDy=0;exitPerimeter=0;entryX=0;entryY=0.25;entryDx=0;entryDy=0;" edge="1" parent="1" source="UPwNnVpkmZIT6Y5rXxJI-7" target="UPwNnVpkmZIT6Y5rXxJI-1">
          <mxGeometry width="50" height="50" relative="1" as="geometry">
            <mxPoint x="400" y="330" as="sourcePoint" />
            <mxPoint x="450" y="280" as="targetPoint" />
          </mxGeometry>
        </mxCell>
        <mxCell id="UPwNnVpkmZIT6Y5rXxJI-19" value="" style="endArrow=classic;html=1;rounded=0;entryX=0.9;entryY=0.7;entryDx=0;entryDy=0;entryPerimeter=0;exitX=0;exitY=0.75;exitDx=0;exitDy=0;" edge="1" parent="1" source="UPwNnVpkmZIT6Y5rXxJI-1" target="UPwNnVpkmZIT6Y5rXxJI-7">
          <mxGeometry width="50" height="50" relative="1" as="geometry">
            <mxPoint x="400" y="330" as="sourcePoint" />
            <mxPoint x="450" y="280" as="targetPoint" />
          </mxGeometry>
        </mxCell>
        <mxCell id="UPwNnVpkmZIT6Y5rXxJI-20" value="" style="endArrow=classic;html=1;rounded=0;" edge="1" parent="1" source="UPwNnVpkmZIT6Y5rXxJI-1" target="UPwNnVpkmZIT6Y5rXxJI-6">
          <mxGeometry width="50" height="50" relative="1" as="geometry">
            <mxPoint x="400" y="330" as="sourcePoint" />
            <mxPoint x="450" y="280" as="targetPoint" />
          </mxGeometry>
        </mxCell>
        <mxCell id="UPwNnVpkmZIT6Y5rXxJI-21" value="" style="endArrow=classic;html=1;rounded=0;exitX=0.333;exitY=0.025;exitDx=0;exitDy=0;exitPerimeter=0;" edge="1" parent="1" source="UPwNnVpkmZIT6Y5rXxJI-6" target="UPwNnVpkmZIT6Y5rXxJI-1">
          <mxGeometry width="50" height="50" relative="1" as="geometry">
            <mxPoint x="400" y="330" as="sourcePoint" />
            <mxPoint x="450" y="280" as="targetPoint" />
          </mxGeometry>
        </mxCell>
      </root>
    </mxGraphModel>
  </diagram>
</mxfile>
